<?xml version="1.0" encoding="UTF-8"?>
<svg version="1.1" xmlns="http://www.w3.org/2000/svg" width="800" height="600">
<path d="M0 0 C6.57670575 3.60591966 11.59040315 8.77256043 13.875 16 C14.71673071 23.64408932 14.70967281 30.74660554 9.875 37 C4.16107193 43.82301976 -2.66623543 45.92399223 -11.125 48 C-10.795 48.33 -10.465 48.66 -10.125 49 C-9.81695858 53.5179408 -10.35725195 57.6030273 -11.125 62.0625 C-11.90346309 66.78193251 -12.21028697 71.21859908 -12.125 76 C-11.87573421 93.14181695 -11.87573421 93.14181695 -15.5390625 97.796875 C-18.00402524 101.22110896 -18.68784048 105.06677439 -19.6875 109.125 C-19.90583496 109.98738281 -20.12416992 110.84976563 -20.34912109 111.73828125 C-22.1470367 118.91366065 -23.72193798 126.03174136 -24.73046875 133.36328125 C-25.79638166 140.90939996 -26.79850424 147.87078678 -29.8125 154.9375 C-34.41605165 165.98602396 -32.14023448 176.03532122 -28.125 187 C-26.90017678 189.57782561 -25.62074666 192.06297008 -24.17578125 194.5234375 C-21.15719799 201.63786793 -21.9418663 210.17010763 -21.9375 217.75 C-21.92525391 218.8534375 -21.91300781 219.956875 -21.90039062 221.09375 C-21.88877348 227.69228932 -22.42389554 233.87643034 -23.70629883 240.35253906 C-24.33898096 244.35300848 -24.26021765 248.10186292 -23.125 252 C-21.4298099 254.28198668 -19.60803093 255.64274737 -17.33984375 257.3203125 C-13.85223425 260.05597334 -12.32341428 261.26834733 -11.125 265.6875 C-11.125 269 -11.125 269 -12.125 272 C-11.30644531 272.24363281 -10.48789062 272.48726563 -9.64453125 272.73828125 C4.81749947 277.92278283 16.53454618 286.77491481 27.7109375 297.08203125 C30.24697694 299.32967631 32.36008907 300.83890644 35.609375 301.85546875 C39.45215945 303.20228196 42.71255202 305.13655152 46.125 307.3125 C46.81464844 307.74908936 47.50429688 308.18567871 48.21484375 308.63549805 C61.8555659 317.38594784 74.65471892 327.20185056 87.11767578 337.54248047 C89.6520093 339.64444922 92.20105037 341.72829574 94.75 343.8125 C95.59949219 344.51503906 96.44898438 345.21757812 97.32421875 345.94140625 C99.10978616 347.38243845 100.92826488 348.78319696 102.76953125 350.15234375 C103.69121094 350.84457031 104.61289062 351.53679687 105.5625 352.25 C106.80580078 353.15492188 106.80580078 353.15492188 108.07421875 354.078125 C109.875 356 109.875 356 110.14453125 358.734375 C110.05558594 359.48203125 109.96664063 360.2296875 109.875 361 C111.86554876 361.69437747 113.86755385 362.35610218 115.875 363 C116.65875 363.309375 117.4425 363.61875 118.25 363.9375 C121.9351653 364.02524203 123.93698552 362.37894466 126.91015625 360.32421875 C130.7178481 357.75800098 133.2378141 356.74237856 137.875 357 C137.875 357.99 137.875 358.98 137.875 360 C136.18229167 360.5859375 134.48958333 361.171875 132.796875 361.7578125 C129.96070169 363.59094891 128.61575599 366.1577922 126.875 369 C130.37454984 369.14671745 133.87329703 369.23453588 137.375 369.3125 C138.35726563 369.35439453 139.33953125 369.39628906 140.3515625 369.43945312 C146.47400863 369.54149389 150.30053767 368.85592252 155.2668457 365.18041992 C157.47314849 363.56094612 159.13914847 363 161.875 363 C164.75396983 364.24319152 166.37756399 365.17093999 168 367.875 C167.79871737 371.29680472 165.28449974 372.68420303 162.875 375 C162.04742188 375.87398438 161.21984375 376.74796875 160.3671875 377.6484375 C155.18863461 383.04340753 150.23517 387.39353024 143.7734375 391.25390625 C140.47145603 393.24310533 137.29537269 395.37171389 134.125 397.5625 C133.57223389 397.94212891 133.01946777 398.32175781 132.44995117 398.71289062 C129.38504583 400.8477334 126.55567059 403.09329438 123.8125 405.625 C120.875 408 120.875 408 118.85546875 407.8828125 C116.33667416 406.76003621 115.62931423 405.61708119 114.25 403.25 C113.84523438 402.57453125 113.44046875 401.8990625 113.0234375 401.203125 C111.875 399 111.875 399 111.02758789 396.62084961 C109.78383401 393.79269923 108.40771805 392.09366588 106.28515625 389.86328125 C105.58326172 389.12142578 104.88136719 388.37957031 104.15820312 387.61523438 C103.42537109 386.85533203 102.69253906 386.09542969 101.9375 385.3125 C101.20853516 384.54099609 100.47957031 383.76949219 99.72851562 382.97460938 C94.30924843 377.13231248 94.30924843 377.13231248 87.0625 374.0625 C81.5196412 372.32640067 77.52632468 368.84312275 73.18823242 365.11157227 C70.07647562 362.49391655 67.22223418 360.59898736 63.453125 359.0390625 C58.55145047 356.99963801 54.73999797 354.1250322 50.625 350.8125 C49.14096554 349.6502433 47.65527227 348.4901017 46.16796875 347.33203125 C45.44270996 346.76564941 44.71745117 346.19926758 43.97021484 345.61572266 C41.01124657 343.33391748 37.99885258 341.1419195 34.9375 339 C34.00035156 338.34 33.06320312 337.68 32.09765625 337 C23.69361534 331.78440128 15.93997703 329.05000501 6.25 327.125 C-3.56656203 325.01879351 -12.18170426 322.25377687 -21.18701172 317.89990234 C-24.78740134 316.22806609 -28.48623763 314.80600905 -32.1875 313.375 C-32.93596191 313.0847998 -33.68442383 312.79459961 -34.45556641 312.49560547 C-40.60256976 310.1424871 -46.81639212 308.0440328 -53.0859375 306.04296875 C-56.125 305 -56.125 305 -58.1640625 303.86328125 C-61.77418306 302.27396523 -65.12841001 302.61921172 -68.75878906 304.00634766 C-69.62729492 304.47089355 -70.49580078 304.93543945 -71.390625 305.4140625 C-72.85048828 306.18556641 -72.85048828 306.18556641 -74.33984375 306.97265625 C-75.34144531 307.51792969 -76.34304688 308.06320312 -77.375 308.625 C-78.36113281 309.14707031 -79.34726562 309.66914063 -80.36328125 310.20703125 C-85.00144763 312.68194217 -89.54805666 315.23837648 -94.01171875 318.015625 C-99.97158294 321.63847345 -106.31728961 324.31289394 -112.6875 327.125 C-121.73240349 331.18879765 -130.07581458 335.53144787 -138.01245117 341.53833008 C-143.4256176 345.6179253 -149.08785234 349.00242241 -155 352.3125 C-156.35339478 353.07228149 -156.35339478 353.07228149 -157.73413086 353.84741211 C-159.44711496 354.80817621 -161.16039678 355.76840977 -162.87402344 356.72802734 C-171.19574454 361.43043157 -178.77478654 366.87644542 -186.27734375 372.765625 C-187.21707031 373.50296875 -188.15679687 374.2403125 -189.125 375 C-190.19041016 375.87205078 -190.19041016 375.87205078 -191.27734375 376.76171875 C-194.01941992 378.59943153 -196.89521935 378.58132473 -200.125 379 C-200.785 379.66 -201.445 380.32 -202.125 381 C-203.176875 381.37125 -204.22875 381.7425 -205.3125 382.125 C-211.16898239 384.50189871 -214.71957618 389.89186426 -218.125 395 C-220.75 395.6875 -220.75 395.6875 -223.125 396 C-223.455 397.32 -223.785 398.64 -224.125 400 C-224.785 400 -225.445 400 -226.125 400 C-226.351875 400.598125 -226.57875 401.19625 -226.8125 401.8125 C-228.52727518 404.67045863 -230.13906897 405.5404903 -233.125 407 C-236.02734375 407.1875 -236.02734375 407.1875 -239.0625 407 C-244.0661423 406.85337312 -246.70524958 407.58922705 -251.125 410 C-256.30113173 410.80586482 -259.83685578 409.96718338 -264.125 407 C-266.36328125 404.94921875 -266.36328125 404.94921875 -268.4375 402.6875 C-269.13488281 401.94886719 -269.83226562 401.21023438 -270.55078125 400.44921875 C-272.527764 397.37336718 -272.60771972 395.59358013 -272.125 392 C-268.01384793 387.47773272 -264.09438578 386.0932941 -258.125 385 C-246.93925632 383.3840713 -246.93925632 383.3840713 -238.25 377.375 C-237.87875 376.59125 -237.5075 375.8075 -237.125 375 C-236.135 374.67 -235.145 374.34 -234.125 374 C-234.785 370.37 -235.445 366.74 -236.125 363 C-234.805 362.67 -233.485 362.34 -232.125 362 C-231.135 364.64 -230.145 367.28 -229.125 370 C-227.805 368.35 -226.485 366.7 -225.125 365 C-223.145 365.33 -221.165 365.66 -219.125 366 C-218.98191406 364.85917969 -218.98191406 364.85917969 -218.8359375 363.6953125 C-218.01237666 360.57302138 -217.25368367 359.82685135 -214.75 357.875 C-211.23871471 354.99986231 -208.08655152 351.95642757 -204.9375 348.6875 C-192.14873884 335.66845171 -173.02363839 320.53842195 -154.96508789 316.51928711 C-154.35785889 316.34792236 -153.75062988 316.17655762 -153.125 316 C-152.83625 315.38125 -152.5475 314.7625 -152.25 314.125 C-150.57295489 310.95724812 -148.38994447 310.31853527 -145.125 309 C-144.0525 308.87625 -142.98 308.7525 -141.875 308.625 C-140.9675 308.41875 -140.06 308.2125 -139.125 308 C-138.44196806 306.33997301 -137.77813168 304.67201711 -137.125 303 C-134.3685591 299.44994645 -131.22725357 296.24932336 -128.125 293 C-127.66818848 292.52127441 -127.21137695 292.04254883 -126.74072266 291.54931641 C-121.53695569 286.1291016 -116.34817688 281.23176028 -110.125 277 C-109.25875 276.113125 -108.3925 275.22625 -107.5 274.3125 C-105.05348592 271.93036787 -103.2750021 271.16052709 -100.125 270 C-98.37502654 268.94570836 -98.37502654 268.94570836 -97.125 267 C-96.65319697 263.54754355 -96.65319697 263.54754355 -96.625 259.6875 C-96.49718482 254.33523929 -96.09260002 250.54392336 -93.125 246 C-90.8109378 245.26924352 -88.47671131 244.59861742 -86.125 244 C-84.44322094 241.6842793 -84.11078911 240.35199287 -84.2265625 237.484375 C-85.25451191 232.11449005 -86.49682872 227.51638982 -89.22265625 222.75390625 C-90.125 221 -90.125 221 -90.59765625 219.04296875 C-91.21661891 216.64506156 -92.2103184 214.86038808 -93.5 212.75 C-93.92023438 212.04359375 -94.34046875 211.3371875 -94.7734375 210.609375 C-95.21945312 210.07828125 -95.66546875 209.5471875 -96.125 209 C-97.115 209 -98.105 209 -99.125 209 C-99.95 209.825 -100.775 210.65 -101.625 211.5 C-102.45 212.325 -103.275 213.15 -104.125 214 C-105.115 214 -106.105 214 -107.125 214 C-107.27195312 214.556875 -107.41890625 215.11375 -107.5703125 215.6875 C-110.82900922 226.7745601 -118.47499287 235.1590473 -128.1875 241.1875 C-135.15591217 245.89330273 -138.18523185 252.83816962 -140 260.875 C-140.12192611 263.92315277 -140.19938984 266.95001668 -140.125 270 C-138.145 270.99 -136.165 271.98 -134.125 273 C-134.455 274.32 -134.785 275.64 -135.125 277 C-142.99385246 277.39344262 -142.99385246 277.39344262 -147.125 274 C-149.16176643 273.77707415 -149.16176643 273.77707415 -151.125 275 C-152.96192815 276.90535241 -154.50962222 278.89103456 -156.125 281 C-157.775 280.67 -159.425 280.34 -161.125 280 C-160.795 278.68 -160.465 277.36 -160.125 276 C-161.135625 276.33 -162.14625 276.66 -163.1875 277 C-166.87979911 278.07001321 -170.27748207 278.15704155 -174.125 278 C-174.125 276.68 -174.125 275.36 -174.125 274 C-173.465 273.67 -172.805 273.34 -172.125 273 C-172.96804688 272.93941406 -173.81109375 272.87882812 -174.6796875 272.81640625 C-175.77539062 272.73261719 -176.87109375 272.64882813 -178 272.5625 C-179.09054687 272.48128906 -180.18109375 272.40007812 -181.3046875 272.31640625 C-184.125 272 -184.125 272 -186.125 271 C-186.125 270.01 -186.125 269.02 -186.125 268 C-183.45350263 266.66425132 -180.96458986 266.55549433 -178 266.1875 C-172.23079452 265.35054992 -168.16460449 263.85260631 -163.125 261 C-162.465 261 -161.805 261 -161.125 261 C-160.85945313 260.39542969 -160.59390625 259.79085938 -160.3203125 259.16796875 C-159.0749245 256.90917679 -157.98000721 255.91952911 -156 254.3125 C-152.22841899 250.68089519 -150.39574583 246.71126805 -148.3125 242 C-143.32234275 230.76263237 -136.98300177 220.89354639 -128.58203125 211.90234375 C-126.34753154 208.98491383 -125.2672032 205.76996852 -124.14453125 202.296875 C-122.92539434 199.55031369 -121.2465563 198.109502 -119.125 196 C-117.61699419 193.35475804 -117.61699419 193.35475804 -116.3125 190.4375 C-107.53180877 172.34395443 -107.53180877 172.34395443 -98.5625 169.0625 C-95.65005402 167.79297227 -94.10758612 166.47823266 -92.125 164 C-91.14572206 161.65170104 -91.14572206 161.65170104 -91.125 159 C-92.70960333 156.54592982 -92.70960333 156.54592982 -95 154.375 C-98.48285336 150.81933438 -99.97571532 148.90337965 -100.375 143.8125 C-99.96645775 137.58223076 -98.06087105 132.08018581 -93.7578125 127.390625 C-88.94181545 123.28896244 -83.53688559 120.54613559 -77.125 120.6875 C-71.73629233 121.54325389 -68.38896168 124.53481065 -64.390625 128.07421875 C-62.07797751 130.20418262 -62.07797751 130.20418262 -58.625 131.6875 C-56.125 133 -56.125 133 -54.75 135.6875 C-54.54375 136.450625 -54.3375 137.21375 -54.125 138 C-53.465 138 -52.805 138 -52.125 138 C-51.465 137.175 -50.805 136.35 -50.125 135.5 C-49.465 134.675 -48.805 133.85 -48.125 133 C-47.465 133 -46.805 133 -46.125 133 C-45.94324219 132.154375 -45.76148438 131.30875 -45.57421875 130.4375 C-43.27110346 120.04395408 -43.27110346 120.04395408 -41.5 115.8125 C-39.96468322 112.0691761 -39.68951763 108.51482307 -39.53125 104.4921875 C-39.125 102 -39.125 102 -37.72265625 99.19921875 C-35.87386291 95.49711179 -34.97311468 91.95094987 -34.0625 87.9375 C-33.03307513 83.48492736 -31.95491225 79.20365384 -30.125 75 C-25.81792853 64.41178264 -23.38494432 54.54932394 -27.71875 43.54296875 C-28.34224026 42.08598419 -28.97774202 40.6340826 -29.625 39.1875 C-30.26277852 37.72368303 -30.89827721 36.25887018 -31.53125 34.79296875 C-31.81291016 34.1589917 -32.09457031 33.52501465 -32.38476562 32.87182617 C-35.0995713 26.00691353 -35.06814146 18.70386982 -32.16015625 11.9140625 C-25.84525604 0.23745457 -12.43200717 -5.65608876 0 0 Z " fill="#000000" transform="translate(452.125,96)"/>
</svg>
