<?xml version="1.0" encoding="UTF-8"?>
<svg version="1.1" xmlns="http://www.w3.org/2000/svg" width="3840" height="2160">
<path d="M0 0 C75.98002994 -0.11994115 151.96007129 -0.23124234 227.94017029 -0.29640198 C229.06417445 -0.29736838 230.18817861 -0.29833478 231.3462435 -0.29933046 C255.77215929 -0.32027939 280.19807609 -0.33967086 304.62399438 -0.35745731 C316.60195025 -0.36618889 328.57990585 -0.37526473 340.55786133 -0.38452148 C342.34581506 -0.38589445 342.34581506 -0.38589445 344.16988907 -0.38729516 C382.82544282 -0.4171402 421.48092507 -0.46973097 460.13643548 -0.53408055 C499.85028661 -0.60007207 539.56409815 -0.64318959 579.27800318 -0.65740493 C584.8835415 -0.6594221 590.48907969 -0.66170156 596.09461784 -0.6641407 C597.19789997 -0.66461266 598.30118209 -0.66508462 599.437897 -0.66557089 C617.2187007 -0.67385235 634.99938222 -0.70634411 652.78013603 -0.74782424 C670.6431105 -0.78898188 688.5059635 -0.80478922 706.36898375 -0.79450964 C716.99004027 -0.78917372 727.61065321 -0.80348462 738.23162988 -0.8455828 C745.32023666 -0.87176749 752.40855188 -0.87269167 759.49717853 -0.8528227 C763.54038475 -0.84222054 767.58275023 -0.8428413 771.62586743 -0.87418228 C775.30301193 -0.90247059 778.97865835 -0.89863305 782.6557793 -0.86897983 C784.60386414 -0.86160779 786.55198593 -0.88867311 788.4998779 -0.91705933 C794.16629856 -0.84018893 797.96257429 -0.77028883 802.12962478 3.32336468 C803.11604965 4.52518713 804.07382985 5.75115249 805 7 C806.07591888 8.23566192 807.15850328 9.46557663 808.25 10.6875 C808.82234375 11.35136719 809.3946875 12.01523438 809.984375 12.69921875 C812.44480269 15.5077302 814.96974992 18.25461879 817.5 21 C821.10032448 24.90963279 824.64418014 28.85866939 828.125 32.875 C830.54550075 35.61823418 833.02200642 38.30884568 835.5 41 C839.10012756 44.90981595 842.64417605 48.85866468 846.125 52.875 C849.01919336 56.15508581 851.99218892 59.36268057 854.95532227 62.58032227 C857.48740116 65.33473428 859.99035268 68.10742499 862.4375 70.9375 C865.54964124 74.52958591 868.76872086 78.01551992 872 81.5 C875.78631688 85.58301022 879.51767049 89.69769717 883.16015625 93.91015625 C885.56670156 96.64370559 888.03303196 99.32114006 890.5 102 C894.10015323 105.90979181 897.64417664 109.85866536 901.125 113.875 C903.54550075 116.61823418 906.02200642 119.30884568 908.5 122 C912.10012756 125.90981595 915.64417605 129.85866468 919.125 133.875 C922.01919336 137.15508581 924.99218892 140.36268057 927.95532227 143.58032227 C930.48740116 146.33473428 932.99035268 149.10742499 935.4375 151.9375 C938.54964124 155.52958591 941.76872086 159.01551992 945 162.5 C948.78631688 166.58301022 952.51767049 170.69769717 956.16015625 174.91015625 C958.56670156 177.64370559 961.03303196 180.32114006 963.5 183 C967.10015323 186.90979181 970.64417664 190.85866536 974.125 194.875 C976.54550075 197.61823418 979.02200642 200.30884568 981.5 203 C984.53888018 206.30028923 987.56156045 209.60949283 990.5 213 C993.86322638 216.87817013 997.33335671 220.65527811 1000.80810547 224.43310547 C1005.24223628 229.25584891 1009.6251824 234.1234112 1014 239 C1015.49971128 240.66692647 1016.99971321 242.33359149 1018.5 244 C1033.5 260.66666667 1048.5 277.33333333 1063.5 294 C1064.61761719 295.24136719 1064.61761719 295.24136719 1065.7578125 296.5078125 C1067.23292618 298.14739879 1068.70691652 299.78799655 1070.1796875 301.4296875 C1074.30097768 306.0203061 1078.44873788 310.58447107 1082.625 315.125 C1086.18253099 318.99367822 1089.68289575 322.90334125 1093.125 326.875 C1095.54550075 329.61823418 1098.02200642 332.30884568 1100.5 335 C1104.10012756 338.90981595 1107.64417605 342.85866468 1111.125 346.875 C1113.54550075 349.61823418 1116.02200642 352.30884568 1118.5 355 C1122.10012756 358.90981595 1125.64417605 362.85866468 1129.125 366.875 C1132.01919336 370.15508581 1134.99218892 373.36268057 1137.95532227 376.58032227 C1140.48740116 379.33473428 1142.99035268 382.10742499 1145.4375 384.9375 C1148.54964124 388.52958591 1151.76872086 392.01551992 1155 395.5 C1158.78631688 399.58301022 1162.51767049 403.69769717 1166.16015625 407.91015625 C1168.56670156 410.64370559 1171.03303196 413.32114006 1173.5 416 C1177.10015323 419.90979181 1180.64417664 423.85866536 1184.125 427.875 C1186.54550075 430.61823418 1189.02200642 433.30884568 1191.5 436 C1194.53888018 439.30028923 1197.56156045 442.60949283 1200.5 446 C1203.86322638 449.87817013 1207.33335671 453.65527811 1210.80810547 457.43310547 C1215.24223628 462.25584891 1219.6251824 467.1234112 1224 472 C1225.49971128 473.66692647 1226.99971321 475.33359149 1228.5 477 C1243.5 493.66666667 1258.5 510.33333333 1273.5 527 C1274.24507812 527.82757812 1274.99015625 528.65515625 1275.7578125 529.5078125 C1277.23292618 531.14739879 1278.70691652 532.78799655 1280.1796875 534.4296875 C1284.30097768 539.0203061 1288.44873788 543.58447107 1292.625 548.125 C1296.18253099 551.99367822 1299.68289575 555.90334125 1303.125 559.875 C1305.54550075 562.61823418 1308.02200642 565.30884568 1310.5 568 C1314.10012756 571.90981595 1317.64417605 575.85866468 1321.125 579.875 C1323.54550075 582.61823418 1326.02200642 585.30884568 1328.5 588 C1331.53888018 591.30028923 1334.56156045 594.60949283 1337.5 598 C1340.86322638 601.87817013 1344.33335671 605.65527811 1347.80810547 609.43310547 C1352.24223628 614.25584891 1356.6251824 619.1234112 1361 624 C1362.49971128 625.66692647 1363.99971321 627.33359149 1365.5 629 C1380.5 645.66666667 1395.5 662.33333333 1410.5 679 C1411.24507812 679.82757812 1411.99015625 680.65515625 1412.7578125 681.5078125 C1414.23292618 683.14739879 1415.70691652 684.78799655 1417.1796875 686.4296875 C1421.30097768 691.0203061 1425.44873788 695.58447107 1429.625 700.125 C1433.18253099 703.99367822 1436.68289575 707.90334125 1440.125 711.875 C1442.54550075 714.61823418 1445.02200642 717.30884568 1447.5 720 C1451.10012756 723.90981595 1454.64417605 727.85866468 1458.125 731.875 C1460.54550075 734.61823418 1463.02200642 737.30884568 1465.5 740 C1469.10012756 743.90981595 1472.64417605 747.85866468 1476.125 751.875 C1479.01919336 755.15508581 1481.99218892 758.36268057 1484.95532227 761.58032227 C1487.48740116 764.33473428 1489.99035268 767.10742499 1492.4375 769.9375 C1495.54964124 773.52958591 1498.76872086 777.01551992 1502 780.5 C1505.78631688 784.58301022 1509.51767049 788.69769717 1513.16015625 792.91015625 C1515.56670156 795.64370559 1518.03303196 798.32114006 1520.5 801 C1524.10015323 804.90979181 1527.64417664 808.85866536 1531.125 812.875 C1533.54550075 815.61823418 1536.02200642 818.30884568 1538.5 821 C1541.53888018 824.30028923 1544.56156045 827.60949283 1547.5 831 C1550.86322638 834.87817013 1554.33335671 838.65527811 1557.80810547 842.43310547 C1562.24223628 847.25584891 1566.6251824 852.1234112 1571 857 C1572.49971128 858.66692647 1573.99971321 860.33359149 1575.5 862 C1590.5 878.66666667 1605.5 895.33333333 1620.5 912 C1621.24507812 912.82757812 1621.99015625 913.65515625 1622.7578125 914.5078125 C1624.23292618 916.14739879 1625.70691652 917.78799655 1627.1796875 919.4296875 C1631.30097768 924.0203061 1635.44873788 928.58447107 1639.625 933.125 C1643.18253099 936.99367822 1646.68289575 940.90334125 1650.125 944.875 C1652.54550075 947.61823418 1655.02200642 950.30884568 1657.5 953 C1661.10012756 956.90981595 1664.64417605 960.85866468 1668.125 964.875 C1670.54550075 967.61823418 1673.02200642 970.30884568 1675.5 973 C1678.53888018 976.30028923 1681.56156045 979.60949283 1684.5 983 C1687.86322638 986.87817013 1691.33335671 990.65527811 1694.80810547 994.43310547 C1699.24223628 999.25584891 1703.6251824 1004.1234112 1708 1009 C1709.49971128 1010.66692647 1710.99971321 1012.33359149 1712.5 1014 C1713.23347656 1014.81855469 1713.96695313 1015.63710937 1714.72265625 1016.48046875 C1716.29963328 1018.22515174 1717.89189225 1019.95609732 1719.49609375 1021.67578125 C1720.30175781 1022.54589844 1721.10742188 1023.41601562 1721.9375 1024.3125 C1722.66839844 1025.09238281 1723.39929687 1025.87226562 1724.15234375 1026.67578125 C1726.03742093 1029.04707284 1727.03465232 1031.14439036 1728 1034 C1727.57589844 1034.4125 1727.15179687 1034.825 1726.71484375 1035.25 C1722.97373155 1038.93355663 1719.4429509 1042.72382948 1716.015625 1046.69921875 C1713.55519731 1049.5077302 1711.03025008 1052.25461879 1708.5 1055 C1705.46095466 1058.30013347 1702.43843541 1061.6094976 1699.5 1065 C1696.09255081 1068.93167214 1692.56870327 1072.75361244 1689.04467773 1076.58032227 C1686.51259884 1079.33473428 1684.00964732 1082.10742499 1681.5625 1084.9375 C1677.93855356 1089.12032011 1674.16744254 1093.16271807 1670.40478516 1097.22021484 C1667.15384488 1100.73212744 1663.97015687 1104.29001418 1660.83984375 1107.91015625 C1658.43329844 1110.64370559 1655.96696804 1113.32114006 1653.5 1116 C1650.46109823 1119.30026876 1647.438439 1122.60949347 1644.5 1126 C1641.0932265 1129.9308925 1637.56997215 1133.75196573 1634.046875 1137.578125 C1631.49444857 1140.35494057 1628.97016712 1143.14980717 1626.5 1146 C1623.09255081 1149.93167214 1619.56870327 1153.75361244 1616.04467773 1157.58032227 C1613.51259884 1160.33473428 1611.00964732 1163.10742499 1608.5625 1165.9375 C1604.93855356 1170.12032011 1601.16744254 1174.16271807 1597.40478516 1178.22021484 C1594.15384488 1181.73212744 1590.97015687 1185.29001418 1587.83984375 1188.91015625 C1585.43329844 1191.64370559 1582.96696804 1194.32114006 1580.5 1197 C1577.46109823 1200.30026876 1574.438439 1203.60949347 1571.5 1207 C1568.0932265 1210.9308925 1564.56997215 1214.75196573 1561.046875 1218.578125 C1558.49444857 1221.35494057 1555.97016712 1224.14980717 1553.5 1227 C1550.13677362 1230.87817013 1546.66664329 1234.65527811 1543.19189453 1238.43310547 C1538.75776372 1243.25584891 1534.3748176 1248.1234112 1530 1253 C1528.50028872 1254.66692647 1527.00028679 1256.33359149 1525.5 1258 C1524.7575 1258.825 1524.015 1259.65 1523.25 1260.5 C1480.5 1308 1480.5 1308 1478.2421875 1310.5078125 C1476.76707382 1312.14739879 1475.29308348 1313.78799655 1473.8203125 1315.4296875 C1469.69902232 1320.0203061 1465.55126212 1324.58447107 1461.375 1329.125 C1457.81746901 1332.99367822 1454.31710425 1336.90334125 1450.875 1340.875 C1447.98148991 1344.15431143 1445.00911641 1347.36106712 1442.046875 1350.578125 C1439.49444857 1353.35494057 1436.97016712 1356.14980717 1434.5 1359 C1431.0932265 1362.9308925 1427.56997215 1366.75196573 1424.046875 1370.578125 C1421.49444857 1373.35494057 1418.97016712 1376.14980717 1416.5 1379 C1413.13677362 1382.87817013 1409.66664329 1386.65527811 1406.19189453 1390.43310547 C1401.75776372 1395.25584891 1397.3748176 1400.1234112 1393 1405 C1391.50028872 1406.66692647 1390.00028679 1408.33359149 1388.5 1410 C1387.7575 1410.825 1387.015 1411.65 1386.25 1412.5 C1343.5 1460 1343.5 1460 1341.2421875 1462.5078125 C1339.76707382 1464.14739879 1338.29308348 1465.78799655 1336.8203125 1467.4296875 C1332.69902232 1472.0203061 1328.55126212 1476.58447107 1324.375 1481.125 C1320.81746901 1484.99367822 1317.31710425 1488.90334125 1313.875 1492.875 C1310.98148991 1496.15431143 1308.00911641 1499.36106712 1305.046875 1502.578125 C1302.49444857 1505.35494057 1299.97016712 1508.14980717 1297.5 1511 C1294.0932265 1514.9308925 1290.56997215 1518.75196573 1287.046875 1522.578125 C1284.49444857 1525.35494057 1281.97016712 1528.14980717 1279.5 1531 C1276.09255081 1534.93167214 1272.56870327 1538.75361244 1269.04467773 1542.58032227 C1266.51259884 1545.33473428 1264.00964732 1548.10742499 1261.5625 1550.9375 C1257.93855356 1555.12032011 1254.16744254 1559.16271807 1250.40478516 1563.22021484 C1247.15384488 1566.73212744 1243.97015687 1570.29001418 1240.83984375 1573.91015625 C1238.43329844 1576.64370559 1235.96696804 1579.32114006 1233.5 1582 C1230.46109823 1585.30026876 1227.438439 1588.60949347 1224.5 1592 C1221.0932265 1595.9308925 1217.56997215 1599.75196573 1214.046875 1603.578125 C1211.49444857 1606.35494057 1208.97016712 1609.14980717 1206.5 1612 C1203.13677362 1615.87817013 1199.66664329 1619.65527811 1196.19189453 1623.43310547 C1191.75776372 1628.25584891 1187.3748176 1633.1234112 1183 1638 C1181.50028872 1639.66692647 1180.00028679 1641.33359149 1178.5 1643 C1177.7575 1643.825 1177.015 1644.65 1176.25 1645.5 C1133.5 1693 1133.5 1693 1131.2421875 1695.5078125 C1129.76707382 1697.14739879 1128.29308348 1698.78799655 1126.8203125 1700.4296875 C1122.69902232 1705.0203061 1118.55126212 1709.58447107 1114.375 1714.125 C1110.81746901 1717.99367822 1107.31710425 1721.90334125 1103.875 1725.875 C1100.98148991 1729.15431143 1098.00911641 1732.36106712 1095.046875 1735.578125 C1092.49444857 1738.35494057 1089.97016712 1741.14980717 1087.5 1744 C1084.0932265 1747.9308925 1080.56997215 1751.75196573 1077.046875 1755.578125 C1074.49444857 1758.35494057 1071.97016712 1761.14980717 1069.5 1764 C1066.13677362 1767.87817013 1062.66664329 1771.65527811 1059.19189453 1775.43310547 C1054.75776372 1780.25584891 1050.3748176 1785.1234112 1046 1790 C1044.50028872 1791.66692647 1043.00028679 1793.33359149 1041.5 1795 C1040.7575 1795.825 1040.015 1796.65 1039.25 1797.5 C996.5 1845 996.5 1845 994.2421875 1847.5078125 C992.76707382 1849.14739879 991.29308348 1850.78799655 989.8203125 1852.4296875 C985.69902232 1857.0203061 981.55126212 1861.58447107 977.375 1866.125 C973.81746901 1869.99367822 970.31710425 1873.90334125 966.875 1877.875 C963.98148991 1881.15431143 961.00911641 1884.36106712 958.046875 1887.578125 C955.49444857 1890.35494057 952.97016712 1893.14980717 950.5 1896 C947.0932265 1899.9308925 943.56997215 1903.75196573 940.046875 1907.578125 C937.49444857 1910.35494057 934.97016712 1913.14980717 932.5 1916 C929.13677362 1919.87817013 925.66664329 1923.65527811 922.19189453 1927.43310547 C917.75776372 1932.25584891 913.3748176 1937.1234112 909 1942 C907.50028872 1943.66692647 906.00028679 1945.33359149 904.5 1947 C903.7575 1947.825 903.015 1948.65 902.25 1949.5 C859.5 1997 859.5 1997 857.2421875 1999.5078125 C855.76707382 2001.14739879 854.29308348 2002.78799655 852.8203125 2004.4296875 C848.69902232 2009.0203061 844.55126212 2013.58447107 840.375 2018.125 C836.81746901 2021.99367822 833.31710425 2025.90334125 829.875 2029.875 C826.98148991 2033.15431143 824.00911641 2036.36106712 821.046875 2039.578125 C818.49444857 2042.35494057 815.97016712 2045.14980717 813.5 2048 C808.49541867 2053.77357797 803.40395969 2059.59604031 798 2065 C796.25524957 2065.09780779 794.50649187 2065.12447227 792.75900215 2065.1241985 C791.61288793 2065.12644579 790.46677371 2065.12869308 789.28592876 2065.13100848 C788.00828811 2065.12838146 786.73064746 2065.12575445 785.41429043 2065.12304783 C784.05219311 2065.12378658 782.69009598 2065.12496422 781.32799938 2065.12654433 C777.5507389 2065.12963374 773.77350503 2065.12642146 769.99624651 2065.12226619 C765.89990297 2065.11884925 761.8035623 2065.12119948 757.70721823 2065.12284368 C750.51654767 2065.1249235 743.32588536 2065.12326334 736.13521576 2065.11920547 C725.44283231 2065.11318821 714.7504541 2065.11286801 704.05806927 2065.11374746 C686.07468577 2065.11506364 668.09130594 2065.11171136 650.10792351 2065.10573006 C632.29324259 2065.09982001 614.47856319 2065.09596552 596.6638813 2065.09487724 C595.55764531 2065.0948085 594.45140932 2065.09473976 593.31165103 2065.09466894 C587.69400415 2065.09433062 582.07635726 2065.09402923 576.45871038 2065.09374207 C536.63319846 2065.09163973 496.80768853 2065.084897 456.98217773 2065.07543945 C418.28393566 2065.06626019 379.58569412 2065.05917405 340.88745117 2065.05493164 C339.09926353 2065.05473435 339.09926353 2065.05473435 337.27495089 2065.05453308 C325.30351738 2065.0532146 313.33208386 2065.05193878 301.36065034 2065.05069422 C276.97184324 2065.04815777 252.58303617 2065.04533652 228.19422913 2065.04234314 C227.07278626 2065.04220585 225.95134338 2065.04206856 224.7959174 2065.04192711 C149.8639441 2065.03272109 74.93197191 2065.01687527 0 2065 C1.39805329 2062.09873022 2.78243413 2059.94375398 5.01171875 2057.609375 C5.60106201 2056.98651611 6.19040527 2056.36365723 6.79760742 2055.72192383 C7.42127197 2055.07118896 8.04493652 2054.4204541 8.6875 2053.75 C9.96964379 2052.39537666 11.25090521 2051.03991757 12.53125 2049.68359375 C13.1396875 2049.04019043 13.748125 2048.39678711 14.375 2047.73388672 C16.73261375 2045.21829585 18.98896015 2042.6236508 21.23828125 2040.01171875 C23.5747114 2037.3437331 25.97416251 2034.73485446 28.375 2032.125 C33.28799565 2026.7836962 38.15379254 2021.40204487 43 2016 C44.49971128 2014.33307353 45.99971321 2012.66640851 47.5 2011 C48.2425 2010.175 48.985 2009.35 49.75 2008.5 C92.5 1961 92.5 1961 94.75390625 1958.49609375 C96.241462 1956.84296657 97.72844903 1955.18932744 99.21484375 1953.53515625 C103.17023592 1949.13486935 107.13867198 1944.74729624 111.125 1940.375 C113.92757381 1937.29690434 116.70967875 1934.2069813 119.4375 1931.0625 C122.82404841 1927.16597725 126.31337995 1923.36647172 129.80786133 1919.56713867 C134.24210316 1914.74434099 138.62510571 1909.87667429 143 1905 C144.49971128 1903.33307353 145.99971321 1901.66640851 147.5 1900 C148.2425 1899.175 148.985 1898.35 149.75 1897.5 C156.5 1890 156.5 1890 158.7578125 1887.4921875 C160.23292618 1885.85260121 161.70691652 1884.21200345 163.1796875 1882.5703125 C167.30097768 1877.9796939 171.44873788 1873.41552893 175.625 1868.875 C179.18253099 1865.00632178 182.68289575 1861.09665875 186.125 1857.125 C189.01851009 1853.84568857 191.99088359 1850.63893288 194.953125 1847.421875 C197.50555143 1844.64505943 200.02983288 1841.85019283 202.5 1839 C205.9067735 1835.0691075 209.43002785 1831.24803427 212.953125 1827.421875 C215.50555143 1824.64505943 218.02983288 1821.85019283 220.5 1819 C223.9067735 1815.0691075 227.43002785 1811.24803427 230.953125 1807.421875 C233.50555143 1804.64505943 236.02983288 1801.85019283 238.5 1799 C241.9067735 1795.0691075 245.43002785 1791.24803427 248.953125 1787.421875 C251.50555143 1784.64505943 254.02983288 1781.85019283 256.5 1779 C259.86322638 1775.12182987 263.33335671 1771.34472189 266.80810547 1767.56689453 C271.24223628 1762.74415109 275.6251824 1757.8765888 280 1753 C281.49971128 1751.33307353 282.99971321 1749.66640851 284.5 1748 C285.2425 1747.175 285.985 1746.35 286.75 1745.5 C293.5 1738 293.5 1738 295.7578125 1735.4921875 C297.23292618 1733.85260121 298.70691652 1732.21200345 300.1796875 1730.5703125 C304.30097768 1725.9796939 308.44873788 1721.41552893 312.625 1716.875 C316.18253099 1713.00632178 319.68289575 1709.09665875 323.125 1705.125 C326.01851009 1701.84568857 328.99088359 1698.63893288 331.953125 1695.421875 C334.50555143 1692.64505943 337.02983288 1689.85019283 339.5 1687 C342.9067735 1683.0691075 346.43002785 1679.24803427 349.953125 1675.421875 C352.50555143 1672.64505943 355.02983288 1669.85019283 357.5 1667 C360.9067735 1663.0691075 364.43002785 1659.24803427 367.953125 1655.421875 C370.50555143 1652.64505943 373.02983288 1649.85019283 375.5 1647 C378.9067735 1643.0691075 382.43002785 1639.24803427 385.953125 1635.421875 C388.50555143 1632.64505943 391.02983288 1629.85019283 393.5 1627 C396.86322638 1623.12182987 400.33335671 1619.34472189 403.80810547 1615.56689453 C408.24223628 1610.74415109 412.6251824 1605.8765888 417 1601 C418.49971128 1599.33307353 419.99971321 1597.66640851 421.5 1596 C422.2425 1595.175 422.985 1594.35 423.75 1593.5 C439.5 1576 439.5 1576 441.7578125 1573.4921875 C443.23292618 1571.85260121 444.70691652 1570.21200345 446.1796875 1568.5703125 C450.30097768 1563.9796939 454.44873788 1559.41552893 458.625 1554.875 C462.18253099 1551.00632178 465.68289575 1547.09665875 469.125 1543.125 C472.01851009 1539.84568857 474.99088359 1536.63893288 477.953125 1533.421875 C480.50555143 1530.64505943 483.02983288 1527.85019283 485.5 1525 C488.9067735 1521.0691075 492.43002785 1517.24803427 495.953125 1513.421875 C498.50555143 1510.64505943 501.02983288 1507.85019283 503.5 1505 C506.86322638 1501.12182987 510.33335671 1497.34472189 513.80810547 1493.56689453 C517.50330998 1489.5478378 521.16594442 1485.50080479 524.8125 1481.4375 C527.07862316 1478.91239133 529.35190615 1476.39383372 531.625 1473.875 C534.23321162 1470.97898572 536.8206549 1468.06857864 539.375 1465.125 C542.78479153 1461.21005417 546.29339963 1457.38822604 549.80761719 1453.56738281 C554.24197003 1448.74453089 558.62502901 1443.87675977 563 1439 C564.49971128 1437.33307353 565.99971321 1435.66640851 567.5 1434 C568.2425 1433.175 568.985 1432.35 569.75 1431.5 C576.5 1424 576.5 1424 578.7578125 1421.4921875 C580.23292618 1419.85260121 581.70691652 1418.21200345 583.1796875 1416.5703125 C587.30097768 1411.9796939 591.44873788 1407.41552893 595.625 1402.875 C599.18253099 1399.00632178 602.68289575 1395.09665875 606.125 1391.125 C609.01851009 1387.84568857 611.99088359 1384.63893288 614.953125 1381.421875 C617.50555143 1378.64505943 620.02983288 1375.85019283 622.5 1373 C625.9067735 1369.0691075 629.43002785 1365.24803427 632.953125 1361.421875 C635.50555143 1358.64505943 638.02983288 1355.85019283 640.5 1353 C643.86322638 1349.12182987 647.33335671 1345.34472189 650.80810547 1341.56689453 C654.50330998 1337.5478378 658.16594442 1333.50080479 661.8125 1329.4375 C664.07862316 1326.91239133 666.35190615 1324.39383372 668.625 1321.875 C671.23321162 1318.97898572 673.8206549 1316.06857864 676.375 1313.125 C679.78479153 1309.21005417 683.29339963 1305.38822604 686.80761719 1301.56738281 C691.24197003 1296.74453089 695.62502901 1291.87675977 700 1287 C701.49971128 1285.33307353 702.99971321 1283.66640851 704.5 1282 C705.2425 1281.175 705.985 1280.35 706.75 1279.5 C713.5 1272 713.5 1272 715.7578125 1269.4921875 C717.23292618 1267.85260121 718.70691652 1266.21200345 720.1796875 1264.5703125 C724.30097768 1259.9796939 728.44873788 1255.41552893 732.625 1250.875 C736.18253099 1247.00632178 739.68289575 1243.09665875 743.125 1239.125 C746.01851009 1235.84568857 748.99088359 1232.63893288 751.953125 1229.421875 C754.50555143 1226.64505943 757.02983288 1223.85019283 759.5 1221 C762.9067735 1217.0691075 766.43002785 1213.24803427 769.953125 1209.421875 C772.50555143 1206.64505943 775.02983288 1203.85019283 777.5 1201 C780.9067735 1197.0691075 784.43002785 1193.24803427 787.953125 1189.421875 C790.50555143 1186.64505943 793.02983288 1183.85019283 795.5 1181 C798.9067735 1177.0691075 802.43002785 1173.24803427 805.953125 1169.421875 C808.50555143 1166.64505943 811.02983288 1163.85019283 813.5 1161 C816.86322638 1157.12182987 820.33335671 1153.34472189 823.80810547 1149.56689453 C828.24223628 1144.74415109 832.6251824 1139.8765888 837 1135 C838.49971128 1133.33307353 839.99971321 1131.66640851 841.5 1130 C842.2425 1129.175 842.985 1128.35 843.75 1127.5 C850.5 1120 850.5 1120 852.7578125 1117.4921875 C854.23292618 1115.85260121 855.70691652 1114.21200345 857.1796875 1112.5703125 C861.30097768 1107.9796939 865.44873788 1103.41552893 869.625 1098.875 C873.18253099 1095.00632178 876.68289575 1091.09665875 880.125 1087.125 C883.01851009 1083.84568857 885.99088359 1080.63893288 888.953125 1077.421875 C891.50555143 1074.64505943 894.02983288 1071.85019283 896.5 1069 C899.4384401 1065.6094922 902.46114142 1062.3003097 905.5 1059 C909.11150867 1055.07735344 912.67163633 1051.11891101 916.1640625 1047.08984375 C920.04641722 1042.67056764 924.03247335 1038.34272535 928 1034 C926.70176525 1030.18437605 925.25033142 1027.92909121 922.3125 1025.1875 C918.98940489 1021.98969213 915.92056085 1018.69307186 912.9140625 1015.19921875 C910.64845431 1012.59608118 908.32696448 1010.04841276 906 1007.5 C903.15475772 1004.38092989 900.3280042 1001.25244609 897.5625 998.0625 C894.17595159 994.16597725 890.68662005 990.36647172 887.19213867 986.56713867 C882.75789684 981.74434099 878.37489429 976.87667429 874 972 C872.50028872 970.33307353 871.00028679 968.66640851 869.5 967 C866.5 963.66666667 863.5 960.33333333 860.5 957 C859.75621094 956.17371094 859.01242187 955.34742188 858.24609375 954.49609375 C856.758538 952.84296657 855.27155097 951.18932744 853.78515625 949.53515625 C849.82976408 945.13486935 845.86132802 940.74729624 841.875 936.375 C839.07242619 933.29690434 836.29032125 930.2069813 833.5625 927.0625 C830.13231424 923.11332633 826.58996482 919.26977695 823.04711914 915.42211914 C820.49459547 912.6452363 817.97024254 909.85027985 815.5 907 C812.13677362 903.12182987 808.66664329 899.34472189 805.19189453 895.56689453 C800.02384427 889.94591004 794.92596494 884.26276666 789.828125 878.578125 C785.70355402 873.9855176 781.55368871 869.4182914 777.375 864.875 C773.77346119 860.95749342 770.22211789 857.00358347 766.734375 852.984375 C763.20499286 848.94625309 759.59365774 844.98085319 756 841 C754.49971321 839.33359149 752.99971128 837.66692647 751.5 836 C750.38238281 834.75863281 750.38238281 834.75863281 749.2421875 833.4921875 C747.76707382 831.85260121 746.29308348 830.21200345 744.8203125 828.5703125 C740.69902232 823.9796939 736.55126212 819.41552893 732.375 814.875 C728.8149821 811.00361736 725.31294132 807.09052085 721.8671875 803.1171875 C719.48873422 800.42028023 717.05884534 797.77178602 714.625 795.125 C708.5533759 788.52216067 702.50651506 781.89849838 696.625 775.125 C693.17148439 771.15747276 689.6099606 767.2915236 686.04736328 763.42236328 C683.49474237 760.64541318 680.97031795 757.85036687 678.5 755 C675.13677362 751.12182987 671.66664329 747.34472189 668.19189453 743.56689453 C663.02384427 737.94591004 657.92596494 732.26276666 652.828125 726.578125 C648.70355402 721.9855176 644.55368871 717.4182914 640.375 712.875 C636.77346119 708.95749342 633.22211789 705.00358347 629.734375 700.984375 C626.20499286 696.94625309 622.59365774 692.98085319 619 689 C617.49971321 687.33359149 615.99971128 685.66692647 614.5 684 C613.38238281 682.75863281 613.38238281 682.75863281 612.2421875 681.4921875 C610.76707382 679.85260121 609.29308348 678.21200345 607.8203125 676.5703125 C603.69902232 671.9796939 599.55126212 667.41552893 595.375 662.875 C591.8149821 659.00361736 588.31294132 655.09052085 584.8671875 651.1171875 C582.48873422 648.42028023 580.05884534 645.77178602 577.625 643.125 C571.5533759 636.52216067 565.50651506 629.89849838 559.625 623.125 C556.17148439 619.15747276 552.6099606 615.2915236 549.04736328 611.42236328 C546.49474237 608.64541318 543.97031795 605.85036687 541.5 603 C538.13677362 599.12182987 534.66664329 595.34472189 531.19189453 591.56689453 C526.75776372 586.74415109 522.3748176 581.8765888 518 577 C516.50028872 575.33307353 515.00028679 573.66640851 513.5 572 C511.27170886 569.52497766 509.0442116 567.04928246 506.8203125 564.5703125 C503.25884914 560.60327325 499.68293087 556.65261104 496.06298828 552.73876953 C491.6816176 547.99656179 487.41944675 543.17967587 483.25 538.25 C478.13560599 532.21048247 472.79160051 526.41568363 467.33886719 520.68066406 C463.68027692 516.82710814 460.13276677 512.90104437 456.6496582 508.88818359 C454.31321066 506.21390725 451.90989877 503.60836102 449.5 501 C446.47995128 497.7221859 443.47795863 494.43416732 440.5625 491.0625 C437.45035705 487.47041211 434.23124165 483.98451718 431 480.5 C427.16954924 476.36856846 423.38737346 472.20890349 419.69921875 467.94921875 C416.18593962 463.91904339 412.58253666 459.96853388 409 456 C407.49971321 454.33359149 405.99971128 452.66692647 404.5 451 C403.75492188 450.17242187 403.00984375 449.34484375 402.2421875 448.4921875 C400.76707382 446.85260121 399.29308348 445.21200345 397.8203125 443.5703125 C393.69902232 438.9796939 389.55126212 434.41552893 385.375 429.875 C381.8149821 426.00361736 378.31294132 422.09052085 374.8671875 418.1171875 C372.02205329 414.89111482 369.10367121 411.7326456 366.19189453 408.56689453 C361.75775502 403.74414163 357.37571266 398.87579411 353 394 C352.236875 393.154375 351.47375 392.30875 350.6875 391.4375 C347.30559913 387.68998823 343.93345513 383.93760068 340.625 380.125 C337.21520847 376.21005417 333.70660037 372.38822604 330.19238281 368.56738281 C325.75802997 363.74453089 321.37497099 358.87675977 317 354 C315.50028872 352.33307353 314.00028679 350.66640851 312.5 349 C310.27170886 346.52497766 308.0442116 344.04928246 305.8203125 341.5703125 C301.69902148 336.97969297 297.55120059 332.41558619 293.375 327.875 C289.77346119 323.95749342 286.22211789 320.00358347 282.734375 315.984375 C279.20499286 311.94625309 275.59365774 307.98085319 272 304 C270.49971321 302.33359149 268.99971128 300.66692647 267.5 299 C266.7575 298.175 266.015 297.35 265.25 296.5 C263 294 260.75 291.5 258.5 289 C257.75492188 288.17242187 257.00984375 287.34484375 256.2421875 286.4921875 C254.76707382 284.85260121 253.29308348 283.21200345 251.8203125 281.5703125 C247.69902273 276.97969436 243.55129287 272.41550032 239.375 267.875 C236.39781719 264.63782784 233.44047144 261.38862271 230.5625 258.0625 C227.45035705 254.47041211 224.23124165 250.98451718 221 247.5 C217.16954924 243.36856846 213.38737346 239.20890349 209.69921875 234.94921875 C206.94176628 231.78607213 204.12381683 228.67774298 201.3125 225.5625 C199.07882507 223.08734669 196.85182284 220.60631688 194.625 218.125 C191.23222809 214.35261725 187.80961124 210.60918892 184.375 206.875 C180.81746901 203.00632178 177.31710425 199.09665875 173.875 195.125 C171.45449925 192.38176582 168.97799358 189.69115432 166.5 187 C162.89987244 183.09018405 159.35582395 179.14133532 155.875 175.125 C153.45449925 172.38176582 150.97799358 169.69115432 148.5 167 C144.89987244 163.09018405 141.35582395 159.14133532 137.875 155.125 C135.45449925 152.38176582 132.97799358 149.69115432 130.5 147 C127.46111982 143.69971077 124.43843955 140.39050717 121.5 137 C118.13677362 133.12182987 114.66664329 129.34472189 111.19189453 125.56689453 C106.02384427 119.94591004 100.92596494 114.26276666 95.828125 108.578125 C91.70355402 103.9855176 87.55368871 99.4182914 83.375 94.875 C79.77346119 90.95749342 76.22211789 87.00358347 72.734375 82.984375 C69.96198116 79.81235682 67.13488795 76.69001097 64.3125 73.5625 C62.07882507 71.08734669 59.85182284 68.60631688 57.625 66.125 C54.23222809 62.35261725 50.80961124 58.60918892 47.375 54.875 C43.81746901 51.00632178 40.31710425 47.09665875 36.875 43.125 C34.45449925 40.38176582 31.97799358 37.69115432 29.5 35 C25.90111685 31.0915355 22.35789506 27.14441381 18.87890625 23.12890625 C16.43736665 20.36250483 13.93713464 17.65124594 11.4375 14.9375 C0 2.48743628 0 2.48743628 0 0 Z " fill="#000000" transform="translate(1395,58)"/>
<path d="M0 0 C0.66 0 1.32 0 2 0 C2 148.17 2 296.34 2 449 C4.97 449.66 7.94 450.32 11 451 C13.9797326 451.9119128 16.92699238 452.85164483 19.87646484 453.85058594 C20.71579056 454.13075058 21.55511627 454.41091522 22.4198761 454.6995697 C25.18498227 455.62365767 27.94792088 456.55405993 30.7109375 457.484375 C32.67999628 458.14345066 34.64920734 458.8020715 36.61856079 459.46026611 C41.82129022 461.20020981 47.0222933 462.94525416 52.22283936 464.69171143 C60.41943985 467.44359168 68.6184319 470.18832845 76.81779861 472.93195343 C79.60574338 473.86570981 82.39283317 474.80197589 85.17977905 475.7387085 C97.29119224 479.80153254 109.43074643 483.77303708 121.58070588 487.71871328 C143.38779284 494.80088442 165.15056098 502.00985178 186.8969059 509.27614784 C191.77550648 510.90578409 196.65481409 512.53330077 201.53405762 514.16101074 C214.89397583 518.61825713 228.25286723 523.07857754 241.61173248 527.53897858 C253.89738149 531.64100576 266.18327351 535.7423017 278.46998835 539.8411355 C283.27266464 541.4433838 288.07513808 543.04623351 292.87705994 544.65074158 C317.23083743 552.78809763 341.61813372 560.81500347 366.04219759 568.73896122 C376.68146742 572.19228267 387.30783488 575.68448781 397.92358398 579.20947266 C400.08875027 579.9272092 402.25482373 580.64221289 404.42163086 581.35498047 C407.6697278 582.42365302 410.91520724 583.49993779 414.16015625 584.578125 C415.13050308 584.89573792 416.10084991 585.21335083 417.1006012 585.54058838 C417.98271774 585.83560242 418.86483429 586.13061646 419.77368164 586.43457031 C420.54555313 586.6899054 421.31742462 586.94524048 422.11268616 587.20831299 C424 588 424 588 426 590 C400.94117729 598.37533537 375.86063763 606.68367522 350.7668457 614.95361328 C346.89293835 616.23032291 343.01924142 617.50766763 339.14575195 618.78564453 C313.81831791 627.14186108 288.47329272 635.44197725 263.10952091 643.68722153 C252.75328638 647.05448316 242.40384708 650.4424556 232.05523682 653.83306885 C226.30274502 655.71773994 220.54979612 657.60101492 214.796875 659.484375 C213.05840805 660.05353134 213.05840805 660.05353134 211.28482056 660.63418579 C199.56671917 664.47008973 187.84620704 668.29859794 176.125 672.125 C175.12555359 672.4512738 174.12610718 672.77754761 173.09637451 673.1137085 C168.07372698 674.7533285 163.05103407 676.39280945 158.02832031 678.03222656 C148.87480103 681.02001666 139.72169031 684.00905802 130.56854248 686.99798584 C125.46237779 688.66537332 120.35618763 690.33268278 115.25 692 C113.20833321 692.66666629 111.16666654 693.33333296 109.125 694 C96.87499998 698.00000001 96.87499998 698.00000001 93.8132019 698.99975586 C91.7691838 699.66720032 89.72517747 700.33468085 87.68118286 701.00219727 C82.61308865 702.65725805 77.54479891 704.31171477 72.47607422 705.96484375 C62.85784303 709.10248984 53.24191117 712.24679243 43.63226318 715.41064453 C39.06489795 716.91400752 34.49648279 718.414165 29.92797852 719.9140625 C27.73880935 720.63380708 25.55016258 721.35514269 23.36206055 722.078125 C20.3390142 723.07687858 17.31425375 724.07026577 14.2890625 725.0625 C13.38842072 725.36164307 12.48777893 725.66078613 11.55984497 725.96899414 C10.32293411 726.37299438 10.32293411 726.37299438 9.06103516 726.78515625 C8.34501129 727.02113525 7.62898743 727.25711426 6.89126587 727.50024414 C5 728 5 728 2 728 C2 876.83 2 1025.66 2 1179 C-2.34125196 1176.82937402 -3.78830626 1174.74590931 -6.25 1170.8125 C-7.12896771 1169.45147951 -8.01066895 1168.09222198 -8.89453125 1166.734375 C-9.38260254 1165.98349609 -9.87067383 1165.23261719 -10.37353516 1164.45898438 C-13.47619168 1159.76820736 -16.71490092 1155.17129756 -19.9375 1150.5625 C-21.32573613 1148.57306689 -22.71375971 1146.58348543 -24.1015625 1144.59375 C-24.76704102 1143.63984375 -25.43251953 1142.6859375 -26.11816406 1141.703125 C-30.00753 1136.11632432 -33.8563417 1130.50169999 -37.70556641 1124.88720703 C-40.42754894 1120.91871872 -43.15571778 1116.95447812 -45.8828125 1112.98950195 C-48.13927288 1109.70828576 -50.39401822 1106.42592375 -52.64453125 1103.140625 C-57.68063436 1095.79391555 -62.75819375 1088.47826427 -67.875 1081.1875 C-72.95551237 1073.94747647 -77.97756993 1066.67060677 -82.95996094 1059.36279297 C-87.31191438 1052.98719431 -91.71194159 1046.64592634 -96.125 1040.3125 C-102.88079351 1030.61658899 -109.59129898 1020.89097516 -116.27246094 1011.14355469 C-122.8403909 1001.56428135 -129.45834977 992.0207879 -136.09643555 982.48999023 C-140.34673127 976.38481851 -144.57583786 970.26593482 -148.78173828 964.13012695 C-152.78524635 958.29667652 -156.82998174 952.49221547 -160.875 946.6875 C-166.31079877 938.88564999 -171.70844397 931.05964834 -177.06591797 923.20385742 C-181.34085413 916.94370759 -185.66501743 910.71868467 -190 904.5 C-195.39492918 896.7607847 -200.75107599 888.99717535 -206.06640625 881.203125 C-210.34119899 874.94323195 -214.66522669 868.71847331 -219 862.5 C-225.53868891 853.11880962 -232.01532989 843.69724736 -238.4609375 834.25195312 C-241.07053933 830.43358903 -243.6912801 826.62289408 -246.3125 822.8125 C-246.78727783 822.1222876 -247.26205566 821.4320752 -247.7512207 820.72094727 C-248.83396575 819.14717337 -249.91695261 817.57356584 -251 816 C-259.73260205 817.67157541 -268.03401699 820.5434846 -276.44419861 823.3656311 C-278.12095612 823.92459163 -279.79784643 824.48315391 -281.47485739 825.04135358 C-286.06965353 826.572012 -290.66256353 828.10826097 -295.25518334 829.64543486 C-300.21311486 831.30377613 -305.17279059 832.95688543 -310.13226318 834.61061096 C-318.72072941 837.47518123 -327.30811297 840.34297716 -335.89478874 843.2129097 C-348.31161301 847.36293279 -360.73028411 851.50740622 -373.14945025 855.65041511 C-393.30198205 862.37336452 -413.45331672 869.09989437 -433.60375977 875.82910156 C-434.80934461 876.23170355 -436.01492946 876.63430554 -437.25704718 877.0491076 C-442.14267603 878.6806561 -447.02830296 880.31221037 -451.9139271 881.94377295 C-465.37870123 886.4403163 -478.84371601 890.93613877 -492.30883789 895.43164062 C-493.51507578 895.83435958 -494.72131367 896.23707854 -495.96410423 896.6520011 C-516.04854761 903.35737084 -536.13378402 910.06036255 -556.21950918 916.76189172 C-568.61452024 920.89759317 -581.00875334 925.03561181 -593.40200204 929.1765915 C-601.88315753 932.01028885 -610.36499518 934.84193729 -618.84738147 937.67194821 C-623.74733054 939.30682903 -628.64693284 940.94273125 -633.54567146 942.58123589 C-638.02320971 944.07884627 -642.50164404 945.57374291 -646.98082871 947.06642155 C-648.60745122 947.60904403 -650.23372886 948.15270158 -651.85963856 948.6974562 C-654.05685597 949.43346921 -656.25525496 950.16583454 -658.45400906 950.89724159 C-659.67866483 951.3062554 -660.90332061 951.71526922 -662.16508716 952.13667738 C-665 953 -665 953 -667 953 C-665.3729223 947.91912546 -662.32239882 944.04762773 -659.1875 939.8125 C-658.00385338 938.19274697 -656.82026112 936.57295421 -655.63671875 934.953125 C-655.03134277 934.12876953 -654.4259668 933.30441406 -653.80224609 932.45507812 C-651.02156706 928.66714689 -648.25690922 924.86775801 -645.5 921.0625 C-644.96536133 920.32507568 -644.43072266 919.58765137 -643.87988281 918.82788086 C-639.9691398 913.40745012 -636.18636303 907.90826367 -632.4375 902.375 C-627.97538091 895.78923781 -623.34220096 889.38316017 -618.51928711 883.05810547 C-614.67500887 877.98327975 -611.0642576 872.77442396 -607.5 867.5 C-603.01927941 860.86938497 -598.37152525 854.42123496 -593.51953125 848.05859375 C-589.6753518 842.9834697 -586.06436035 837.77457601 -582.5 832.5 C-578.47736636 826.54726661 -574.3564925 820.71309119 -570 815 C-565.03161659 808.4824328 -560.38171958 801.78565799 -555.78735352 795.00048828 C-552.00423691 789.42745525 -548.09947134 783.96670929 -544.08911133 778.55566406 C-540.70142719 773.97834135 -537.39788617 769.34750967 -534.125 764.6875 C-529.96039455 758.75930818 -525.75163615 752.86609341 -521.5 747 C-517.29307142 741.19438858 -513.12391078 735.36487575 -509 729.5 C-504.87608724 723.63512143 -500.70674553 717.80574605 -496.5 712 C-490.25956748 703.38473364 -484.11798644 694.70248236 -478 686 C-471.34454829 676.53300433 -464.64579328 667.10172956 -457.85571289 657.73071289 C-454.20012243 652.67940109 -450.58648575 647.60056944 -447 642.5 C-442.34377841 635.87809119 -437.62172558 629.30669949 -432.87084961 622.75244141 C-428.57311765 616.81504882 -424.33528583 610.83720488 -420.1328125 604.83203125 C-419.67777344 604.18363281 -419.22273437 603.53523438 -418.75390625 602.8671875 C-418.31191895 602.23393555 -417.86993164 601.60068359 -417.41455078 600.94824219 C-416.40806925 599.56202841 -415.35976793 598.20576961 -414.28466797 596.87207031 C-413.72537598 596.17436523 -413.16608398 595.47666016 -412.58984375 594.7578125 C-412.07156006 594.13277832 -411.55327637 593.50774414 -411.01928711 592.86376953 C-409.80690572 591.05833921 -409.80690572 591.05833921 -410.18286133 588.99609375 C-411.06664909 586.83719062 -412.09890673 585.18147391 -413.484375 583.3046875 C-414.00064453 582.59828125 -414.51691406 581.891875 -415.04882812 581.1640625 C-415.61021484 580.40867187 -416.17160156 579.65328125 -416.75 578.875 C-417.94287197 577.24751576 -419.13557569 575.61990819 -420.328125 573.9921875 C-420.93978516 573.16170898 -421.55144531 572.33123047 -422.18164062 571.47558594 C-424.97855411 567.66775797 -427.73849964 563.8335428 -430.5 560 C-431.58313095 558.49985385 -432.66646496 556.9998543 -433.75 555.5 C-444.58333333 540.5 -455.41666667 525.5 -466.25 510.5 C-466.7864917 509.75717773 -467.3229834 509.01435547 -467.87573242 508.24902344 C-468.95667191 506.75231299 -470.03756401 505.25556832 -471.1184082 503.75878906 C-473.8629754 499.95817363 -476.60841966 496.15819702 -479.35546875 492.359375 C-484.65682231 485.02666167 -489.94655437 477.68638156 -495.19873047 470.31835938 C-500.2098587 463.29435105 -505.27069471 456.30621493 -510.32666016 449.31445312 C-513.05263139 445.54406981 -515.77621534 441.77196306 -518.5 438 C-519.58332144 436.49999141 -520.66665479 434.99999142 -521.75 433.5 C-523.91666667 430.5 -526.08333333 427.5 -528.25 424.5 C-528.7864917 423.75717773 -529.3229834 423.01435547 -529.87573242 422.24902344 C-530.95667191 420.75231299 -532.03756401 419.25556832 -533.1184082 417.75878906 C-535.8629754 413.95817363 -538.60841966 410.15819702 -541.35546875 406.359375 C-546.65682231 399.02666167 -551.94655437 391.68638156 -557.19873047 384.31835938 C-562.2098587 377.29435105 -567.27069471 370.30621493 -572.32666016 363.31445312 C-575.59229533 358.79764229 -578.85469618 354.278495 -582.11767578 349.75976562 C-584.86251144 345.95884225 -587.60818127 342.15852668 -590.35546875 338.359375 C-595.65682231 331.02666167 -600.94655437 323.68638156 -606.19873047 316.31835938 C-611.2098587 309.29435105 -616.27069471 302.30621493 -621.32666016 295.31445312 C-624.05263139 291.54406981 -626.77621534 287.77196306 -629.5 284 C-630.58332144 282.49999141 -631.66665479 280.99999142 -632.75 279.5 C-634.91666667 276.5 -637.08333333 273.5 -639.25 270.5 C-639.7864917 269.75717773 -640.3229834 269.01435547 -640.87573242 268.24902344 C-641.95667191 266.75231299 -643.03756401 265.25556832 -644.1184082 263.75878906 C-646.8629754 259.95817363 -649.60841966 256.15819702 -652.35546875 252.359375 C-658.9335302 243.26073003 -665.48667984 234.14511318 -672 225 C-668.5336529 223.84455097 -667.74578339 224.1740664 -664.38476562 225.31665039 C-663.44091507 225.63248077 -662.49706451 225.94831116 -661.52461243 226.27371216 C-660.49555283 226.62811371 -659.46649323 226.98251526 -658.40625 227.34765625 C-657.32961594 227.71027557 -656.25298187 228.0728949 -655.14372253 228.44650269 C-652.81441549 229.23207078 -650.48647757 230.02170748 -648.15975952 230.81491089 C-643.21508197 232.50052051 -638.26402457 234.16698398 -633.31315613 235.83430481 C-630.79656209 236.68195377 -628.28029802 237.53058297 -625.76435852 238.38017273 C-615.09751781 241.97948955 -604.39999746 245.47696868 -593.6875 248.9375 C-576.92597329 254.36220012 -560.20874139 259.91500049 -543.5 265.5 C-526.91615492 271.04323402 -510.32322055 276.55185819 -493.6875 281.9375 C-475.76936288 287.73841042 -457.90112385 293.68560459 -440.03874969 299.65547943 C-422.64360108 305.46885507 -405.23396055 311.23183207 -387.78466797 316.88085938 C-370.76719159 322.39296367 -353.80055059 328.05407766 -336.8354187 333.72494507 C-318.81874169 339.74580088 -300.78071743 345.69529035 -282.70898438 351.54882812 C-281.89693542 351.81193787 -281.08488647 352.07504761 -280.24822998 352.34613037 C-278.6895578 352.85087789 -277.13068669 353.3550116 -275.57159424 353.85845947 C-271.90784695 355.04418715 -268.25171659 356.24778933 -264.60644531 357.48925781 C-263.91374542 357.72436066 -263.22104553 357.9594635 -262.50735474 358.20169067 C-260.64041354 358.83764343 -258.77544959 359.47939248 -256.91064453 360.12158203 C-254.02804191 361.14446203 -254.02804191 361.14446203 -251 361 C-249.62514844 359.59510786 -249.62514844 359.59510786 -248.42578125 357.65234375 C-247.93166748 356.9140332 -247.43755371 356.17572266 -246.9284668 355.41503906 C-246.39519775 354.59745117 -245.86192871 353.77986328 -245.3125 352.9375 C-244.13915519 351.18023164 -242.96462449 349.42375466 -241.7890625 347.66796875 C-241.17063477 346.73903809 -240.55220703 345.81010742 -239.91503906 344.85302734 C-236.73185907 340.11072222 -233.45823862 335.4321478 -230.1875 330.75 C-228.82667799 328.79697598 -227.4660022 326.84385005 -226.10546875 324.890625 C-225.42661621 323.91673828 -224.74776367 322.94285156 -224.04833984 321.93945312 C-220.69581651 317.12844228 -217.34811999 312.31407577 -214 307.5 C-212.66669052 305.58331674 -211.33335717 303.66665009 -210 301.75 C-209.34 300.80125 -208.68 299.8525 -208 298.875 C-106 152.25 -106 152.25 -103.9987793 149.37329102 C-102.66945771 147.4623608 -101.34019311 145.55139093 -100.01098633 143.64038086 C-96.61674652 138.76061498 -93.2214281 133.88160534 -89.82421875 129.00390625 C-83.98695753 120.62098483 -78.15036894 112.23822419 -72.375 103.8125 C-67.80545627 97.14708623 -63.17747646 90.52367859 -58.53808594 83.90673828 C-52.0113425 74.59616776 -45.52187387 65.25978739 -39.03222656 55.92333984 C-35.03131721 50.16806731 -31.02784701 44.41457581 -27.0246582 38.66088867 C-23.55286089 33.67068795 -20.08221205 28.67969389 -16.61328125 23.6875 C-15.53336914 22.13385742 -15.53336914 22.13385742 -14.43164062 20.54882812 C-13.05887863 18.57382216 -11.68646077 16.59857695 -10.31445312 14.62304688 C-9.09442574 12.8680747 -7.87209283 11.11470202 -6.64697266 9.36328125 C-5.59000094 7.84660675 -4.54196342 6.32364412 -3.50537109 4.79296875 C-2.38554386 3.16085837 -1.20002315 1.57408442 0 0 Z " fill="#000000" transform="translate(1365,507)"/>
</svg>
